#N canvas 1101 157 699 524 12;
#X obj 108 388 vline~;
#X text 298 368 0 \, 1 a \, s d a \, 0 r;
#X msg 291 333 0 \, 1 \$1 \, \$3 \$2 \$1;
#X obj 108 253 f;
#X msg 108 288 0 \$1;
#X obj 108 435 outlet~;
#X obj 108 58 inlet;
#X obj 314 53 inlet;
#X obj 290 186 list;
#X obj 108 137 sel 0;
#X text 108 37 note on/off;
#X text 314 33 list: adsr;
#X text 424 332 Attack \, decay \, sustain;
#X text 147 288 ...release;
#X obj 140 165 bng 15 250 50 0 empty empty empty 17 7 0 10 -262144
-1 -1;
#X msg 177 216 \$4;
#X msg 350 126 20 20 0.5 300;
#X obj 350 97 loadbang;
#X connect 0 0 5 0;
#X connect 2 0 0 0;
#X connect 3 0 4 0;
#X connect 4 0 0 0;
#X connect 6 0 9 0;
#X connect 7 0 8 1;
#X connect 8 0 2 0;
#X connect 8 0 15 0;
#X connect 9 0 3 0;
#X connect 9 1 14 0;
#X connect 14 0 8 0;
#X connect 15 0 3 1;
#X connect 16 0 8 1;
#X connect 17 0 16 0;
