#N canvas 1116 29 323 363.031 12;
#X obj 89 186 *~, f 13;
#X obj 8 220 +~, f 12;
#X text 7 7 carrier hz;
#X obj 8 28 inlet;
#X obj 89 67 *~;
#X obj 195 28 inlet~;
#X text 105 7 harm ratio;
#X text 193 7 mod index;
#X obj 107 28 inlet~;
#X obj 8 289 outlet~;
#X obj 8 250 osc~;
#X obj 89 137 osc~;
#X text 92 120 modulator;
#X text 42 250 carrier;
#X obj 8 137 mtof;
#X connect 0 0 1 1;
#X connect 1 0 10 0;
#X connect 3 0 4 0;
#X connect 3 0 14 0;
#X connect 4 0 11 0;
#X connect 5 0 0 1;
#X connect 8 0 4 1;
#X connect 10 0 9 0;
#X connect 11 0 0 0;
#X connect 14 0 1 0;
