#N canvas 12 40 1668 642 12;
#X obj 142 489 adsr2~;
#X obj 74 519 Operator, f 10;
#X obj 332 198 s fm-harm;
#X obj 407 198 s fm-mod;
#X obj 142 460 != 0;
#X obj 728 621 dac~;
#X obj 491 198 s adsr-list;
#X obj 181 459 r adsr-list;
#X obj 335 32 loadbang;
#X msg 491 169 20 20 0.5 300;
#X obj 353 488 adsr2~;
#X obj 284 522 Operator, f 10;
#X obj 353 459 != 0;
#X obj 392 458 r adsr-list;
#X obj 556 493 adsr2~;
#X obj 488 522 Operator, f 10;
#X obj 556 464 != 0;
#X obj 595 463 r adsr-list;
#X obj 786 493 adsr2~;
#X obj 719 522 Operator, f 10;
#X obj 786 464 != 0;
#X obj 825 463 r adsr-list;
#X obj 77 293 route 1 2 3 4, f 47;
#X obj 332 171 f 2.02;
#X obj 407 172 f 400;
#X obj 75 406 unpack f f;
#X obj 286 403 unpack f f;
#X obj 489 404 unpack f f;
#X obj 719 393 unpack f f;
#X obj 438 50 hsl 200 15 0 10 0 0 empty empty Harmonicity -2 -8 0 10
-262144 -1 -262144 0 1;
#X obj 436 84 hsl 200 15 0 1000 0 0 empty empty Modulation\ Index -2
-8 0 10 -262144 -1 -262144 0 1;
#X obj 76 218 pack f f f;
#X floatatom 76 121 5 0 0 2 voice - -, f 5;
#X floatatom 109 147 5 0 0 2 midinote - -, f 5;
#X floatatom 143 173 5 0 0 1 velocity - -, f 5;
#X obj 1020 494 adsr2~;
#X obj 952 524 Operator, f 10;
#X obj 1020 465 != 0;
#X obj 1059 464 r adsr-list;
#X obj 1231 493 adsr2~;
#X obj 1162 527 Operator, f 10;
#X obj 1231 464 != 0;
#X obj 1270 463 r adsr-list;
#X obj 1434 498 adsr2~;
#X obj 1366 527 Operator, f 10;
#X obj 1434 469 != 0;
#X obj 1473 468 r adsr-list;
#X obj 1664 498 adsr2~;
#X obj 1597 527 Operator, f 10;
#X obj 1664 469 != 0;
#X obj 1703 468 r adsr-list;
#X obj 955 298 route 1 2 3 4, f 47;
#X obj 953 411 unpack f f;
#X obj 1164 408 unpack f f;
#X obj 1367 409 unpack f f;
#X obj 1597 398 unpack f f;
#X obj 933 246 + 4;
#X connect 0 0 1 1;
#X connect 1 0 5 0;
#X connect 1 0 5 1;
#X connect 4 0 0 0;
#X connect 7 0 0 1;
#X connect 8 0 9 0;
#X connect 8 0 23 0;
#X connect 8 0 24 0;
#X connect 9 0 6 0;
#X connect 10 0 11 1;
#X connect 11 0 5 0;
#X connect 11 0 5 1;
#X connect 12 0 10 0;
#X connect 13 0 10 1;
#X connect 14 0 15 1;
#X connect 15 0 5 0;
#X connect 15 0 5 1;
#X connect 16 0 14 0;
#X connect 17 0 14 1;
#X connect 18 0 19 1;
#X connect 19 0 5 0;
#X connect 19 0 5 1;
#X connect 20 0 18 0;
#X connect 21 0 18 1;
#X connect 22 0 25 0;
#X connect 22 1 26 0;
#X connect 22 2 27 0;
#X connect 22 3 28 0;
#X connect 22 4 56 0;
#X connect 23 0 2 0;
#X connect 24 0 3 0;
#X connect 25 0 1 0;
#X connect 25 1 4 0;
#X connect 26 0 11 0;
#X connect 26 1 12 0;
#X connect 27 0 15 0;
#X connect 27 1 16 0;
#X connect 28 0 19 0;
#X connect 28 1 20 0;
#X connect 29 0 23 0;
#X connect 30 0 24 0;
#X connect 31 0 22 0;
#X connect 32 0 31 0;
#X connect 33 0 31 1;
#X connect 34 0 31 2;
#X connect 35 0 36 1;
#X connect 36 0 5 0;
#X connect 36 0 5 1;
#X connect 37 0 35 0;
#X connect 38 0 35 1;
#X connect 39 0 40 1;
#X connect 40 0 5 0;
#X connect 40 0 5 1;
#X connect 41 0 39 0;
#X connect 42 0 39 1;
#X connect 43 0 44 1;
#X connect 44 0 5 0;
#X connect 44 0 5 1;
#X connect 45 0 43 0;
#X connect 46 0 43 1;
#X connect 47 0 48 1;
#X connect 48 0 5 0;
#X connect 48 0 5 1;
#X connect 49 0 47 0;
#X connect 50 0 47 1;
#X connect 51 0 52 0;
#X connect 51 1 53 0;
#X connect 51 2 54 0;
#X connect 51 3 55 0;
#X connect 52 0 36 0;
#X connect 52 1 37 0;
#X connect 53 0 40 0;
#X connect 53 1 41 0;
#X connect 54 0 44 0;
#X connect 54 1 45 0;
#X connect 55 0 48 0;
#X connect 55 1 49 0;
#X connect 56 0 51 0;
